<svg xmlns="http://www.w3.org/2000/svg" width="417.114" height="462.705" viewBox="0 0 417.114 462.705">
  <g id="OBJECTS" transform="matrix(-0.891, -0.454, 0.454, -0.891, 254.584, 466.404)" opacity="0.3">
    <g id="Group_55" data-name="Group 55" transform="translate(0 0)">
      <g id="Group_33" data-name="Group 33" transform="translate(4.886 158.182)">
        <path id="Path_96" data-name="Path 96" d="M11.962,197.527a642.022,642.022,0,0,1,275.9,8.55c3.4.877,6.906,4.494,10.085,2.96,2.96-1.425,3.727-5.481,2.521-8.44-1.1-3.069-3.727-5.262-6.138-7.344,9.646-57.767,7.563-118.6-8.221-175.056,1.644-1.973,4.056-5.152,4.823-7.563.658-2.521.11-5.59-2.083-7.015a6.766,6.766,0,0,0-4.823-.877,12.778,12.778,0,0,0-10.194,8.55c-62.481,6.138-126.386,7.454-188.867,1.1C64.249,10.3,43.422,7.454,23.91,0A1186.1,1186.1,0,0,1,8.893,186.894c-2.631,1.425-6.906,3.837-8.221,6.467-1.425,2.631-.548,6.687,2.3,7.454C5.495,201.692,10.1,199.39,11.962,197.527Z" transform="translate(0 0)" fill="#78ccae"/>
        <g id="Group_27" data-name="Group 27" transform="translate(110.068 57.329)">
          <path id="Path_97" data-name="Path 97" d="M25.65,23.458a65.445,65.445,0,0,1-7.563-4.494,65.855,65.855,0,0,1-6.906-5.481A55.128,55.128,0,0,1,5.152,7.125,65.323,65.323,0,0,1,0,0,45.665,45.665,0,0,0,4.713,7.563a48.749,48.749,0,0,0,6.029,6.577,48.521,48.521,0,0,0,7.125,5.371A37.061,37.061,0,0,0,25.65,23.458Z" transform="translate(0 0)" fill="#1b262c"/>
        </g>
        <g id="Group_28" data-name="Group 28" transform="translate(95.489 84.733)">
          <path id="Path_98" data-name="Path 98" d="M33.652,8.66a48.1,48.1,0,0,1-8.879.219A47.207,47.207,0,0,1,16,7.454a44.28,44.28,0,0,1-8.331-2.96A41.361,41.361,0,0,1,0,0,35.608,35.608,0,0,0,7.454,5.042a37.208,37.208,0,0,0,8.44,3.179,41.184,41.184,0,0,0,8.879,1.206A26.865,26.865,0,0,0,33.652,8.66Z" transform="translate(0 0)" fill="#1b262c"/>
        </g>
        <g id="Group_29" data-name="Group 29" transform="translate(85.952 119.481)">
          <path id="Path_99" data-name="Path 99" d="M34.967,0a92.921,92.921,0,0,1-8.112,5.262,62.875,62.875,0,0,1-8.55,4.385,89.7,89.7,0,0,1-8.988,3.508C6.248,14.14,3.069,15.017,0,15.675A70.09,70.09,0,0,0,9.537,13.7a71.544,71.544,0,0,0,9.208-3.4,64.241,64.241,0,0,0,8.55-4.6A46.346,46.346,0,0,0,34.967,0Z" transform="translate(0 0)" fill="#1b262c"/>
        </g>
        <g id="Group_30" data-name="Group 30" transform="translate(166.848 132.086)">
          <path id="Path_100" data-name="Path 100" d="M0,0A48.71,48.71,0,0,0,2.3,7.783a55.684,55.684,0,0,0,3.617,7.235,45.972,45.972,0,0,0,4.823,6.577,39.936,39.936,0,0,0,5.81,5.59c-1.863-1.973-3.727-3.946-5.371-6.029a70.423,70.423,0,0,1-4.6-6.577A61.608,61.608,0,0,1,2.85,7.563C1.863,5.042.877,2.631,0,0Z" transform="translate(0 0)" fill="#1b262c"/>
        </g>
        <g id="Group_31" data-name="Group 31" transform="translate(181.975 116.521)">
          <path id="Path_101" data-name="Path 101" d="M0,0A43.652,43.652,0,0,0,7.344,6.138,42.417,42.417,0,0,0,16,10.413a39.7,39.7,0,0,0,9.317,2.192,34.735,34.735,0,0,0,9.537,0,46.545,46.545,0,0,1-9.537-.658,54.227,54.227,0,0,1-9.208-2.412,43.5,43.5,0,0,1-8.55-4.056A57.309,57.309,0,0,1,0,0Z" transform="translate(0 0)" fill="#1b262c"/>
        </g>
        <g id="Group_32" data-name="Group 32" transform="translate(194.691 83.308)">
          <path id="Path_102" data-name="Path 102" d="M0,11.4a57.616,57.616,0,0,0,9.756-.548A54.83,54.83,0,0,0,19.292,8.66a71.414,71.414,0,0,0,9.1-3.617A50.53,50.53,0,0,0,36.831,0a92.739,92.739,0,0,1-8.66,4.494,70.1,70.1,0,0,1-9.1,3.4,69.541,69.541,0,0,1-9.427,2.3C6.467,10.742,3.179,11.071,0,11.4Z" transform="translate(0 0)" fill="#1b262c"/>
        </g>
        <path id="Path_103" data-name="Path 103" d="M260.227,2.521a6.766,6.766,0,0,1,4.823.877,4.692,4.692,0,0,1,1.644,1.973c-18.306,17.867-42.969,29.158-68.181,34.748-31.569,7.015-64.344,6.029-96.681,5.042-20.06-.658-40.338-1.315-59.85-5.81C25.65,35.625,12.277,28.281,0,19.292.11,12.825.219,6.358.219,0c19.4,7.454,40.338,10.3,61.056,12.386,62.481,6.248,126.386,5.042,188.867-1.1A12.386,12.386,0,0,1,260.227,2.521Z" transform="translate(23.8 0.219)" fill="#3fb68b" opacity="0.7"/>
        <path id="Path_104" data-name="Path 104" d="M296.948,36.462c-3.179,1.535-6.687-2.083-10.085-2.96a642.022,642.022,0,0,0-275.9-8.55C9.1,26.816,4.6,29.118,1.973,28.351A3.337,3.337,0,0,1,0,26.926C17.648,15.964,38.365,10.483,58.863,6.647,139.321-8.041,224.054,1.824,299.25,34.16A5.193,5.193,0,0,1,296.948,36.462Z" transform="translate(1.001 172.574)" fill="#27ad7d" opacity="0.7"/>
      </g>
      <path id="Path_105" data-name="Path 105" d="M278.679,30.912a591,591,0,0,0-34.09,139.979c-1.206,10.3-2.192,20.717-6.248,30.254a52.511,52.511,0,0,1-23.129,25.321,182.268,182.268,0,0,1-30.8,54.7c-4.494,5.481-9.317,10.742-15.127,14.579-5.919,3.837-12.935,6.358-19.95,5.7s-13.592-4.385-16.552-10.852a30.737,30.737,0,0,1-14.908-7.563c-5.481-5.042-8.988-12.387-8.331-19.731.548-6.358,4.6-12.5,10.413-15.017a135.654,135.654,0,0,1,14.25-25.54,47.688,47.688,0,0,0-.767-23.567c-2.631-8.55-8.112-17.1-16.771-19.512a34.9,34.9,0,0,1,18.744,8.112,56.067,56.067,0,0,0-27.952-19.292c8.66,1.315,17.319,2.85,25.869,4.6-5.59-8.221-11.838-16-19.511-22.252a12.463,12.463,0,0,0-9.865-1.863,20.3,20.3,0,0,0-6.029,2.85C95.95,159.71,93.868,167.6,91.785,175.6a52.563,52.563,0,0,1-14.908,1.973l-8.55,18.415L63.5,216.271S44.65,257.815,54.3,219.45c0,0-36.392,58.754-7.015.658,0,0-43.736,53.821-5.371-4.713,0,0-35.515,35.186-9.208,1.754h0a1.924,1.924,0,0,1,.438-.548,5.077,5.077,0,0,1-2.3.877c-2.631,2.412-5.042,4.275-5.371,3.617h0v-.548h0c0-.11.11-.219.11-.438h0c.11-.11.11-.329.219-.548v-.11c.11-.219.219-.329.329-.548v-.11a6.292,6.292,0,0,1,.438-.767.107.107,0,0,1,.11-.11,4.765,4.765,0,0,0,.438-.767c0-.11.11-.11.11-.219.219-.329.329-.658.548-.987l.11-.11.658-.987c.11-.11.11-.219.219-.219.219-.438.548-.767.767-1.206a.383.383,0,0,0,.11-.219c.219-.438.548-.767.767-1.206.11-.11.11-.219.219-.329.329-.438.658-.987.987-1.535l.11-.11c.329-.438.658-.987,1.1-1.535.11-.11.219-.329.329-.438s.219-.329.329-.438l-6.138,5.919s-25.76,39.242-5.371-4.823c0,0-28.829,45.161-10.085,3.508h0c1.206-2.631,2.521-5.59,4.056-8.879,0,0-27.075,32.994-10.633,5.59h0c1.535-2.631,3.508-5.81,6.029-9.756,0,0-16.662,14.36-7.892,2.412h0l.987-1.315h0c.329-.438.767-.987,1.206-1.535v-.11l1.315-1.644v-.11c.438-.548.987-1.206,1.535-1.863h0l17.867-13.592,16.223-6.577c-.767-3.508-.438-7.235-.987-10.852-.548-3.727-1.315-9.1-4.713-10.633,9.1-4.933,17.977-10.3,26.527-16.113A337.9,337.9,0,0,1,85.1,92.406c2.96-5.042,6.577-10.523,12.277-12.058h0c.11,0,.219-.11.329-.11,3.288-.877,6.577-.219,9.756.987a7.558,7.558,0,0,1,1.1.438c.658.329,1.425.658,2.083.987,1.425.658,2.74,1.425,4.056,2.083,10.742,6.029,21.594,12.058,32.336,18.087a78.52,78.52,0,0,1,5.152-16.333c0-.11.11-.11.11-.219.329-.658.658-1.425.987-2.083.439-.877.877-1.644,1.315-2.521a5.12,5.12,0,0,0,.548-1.1l.658-1.315c.986-1.973,2.083-3.837,3.069-5.81q1.809-3.617,3.288-7.235c7.454-20.717-1.425-44.723,3.4-66.208A250.669,250.669,0,0,0,203.7,16.552c-.219-2.85-.329-5.81-.658-8.66,11.51-4.823,22.8-9.646,34.858-6.029a219.8,219.8,0,0,1-5.81,22.581A238.418,238.418,0,0,0,278.679,30.912Z" transform="translate(7.274 0.445)" fill="#3fb68b" opacity="0.7"/>
      <g id="Group_54" data-name="Group 54" transform="translate(0 0)">
        <g id="Group_53" data-name="Group 53">
          <g id="Group_52" data-name="Group 52">
            <path id="Path_106" data-name="Path 106" d="M19.4,77.936C12.277,79.8,7.235,87.144,6.906,94.488c-.219,7.454,3.727,14.579,9.427,19.292a31.924,31.924,0,0,0,15.346,6.8c3.288,6.248,10.085,9.646,17.1,9.975S62.7,128.031,68.4,123.865s10.194-9.646,14.36-15.346a183.691,183.691,0,0,0,33.433-80.9C79.361,12.935,39.461,3.837,0,0A55.726,55.726,0,0,1,28.938,17.867,36.986,36.986,0,0,0,9.756,10.742c8.769,1.973,14.688,10.194,17.758,18.525C33.323,45.271,29.048,63.8,19.4,77.936Z" transform="translate(104.65 173.857)" fill="#1b262c"/>
            <path id="Path_107" data-name="Path 107" d="M4.494,6.138A28.582,28.582,0,0,0,21.594,0a13.608,13.608,0,0,1-5.81,5.59c1.754-.548,3.4-1.206,5.152-1.754-.767.987-1.535,1.863-2.3,2.85A17.476,17.476,0,0,0,28.39,1.425a23.093,23.093,0,0,1-6.467,8.66C23.567,9.427,25.211,8.66,26.965,8c-.767,1.206-1.535,2.3-2.3,3.508A10.188,10.188,0,0,0,32.008,8.44a13.24,13.24,0,0,1-4.713,5.919,9.543,9.543,0,0,0,6.687-1.535c-1.1.987-2.3,1.973-3.4,2.96,1.315-.219,2.631-.548,3.946-.767-.658.767-1.315,1.425-1.973,2.192a22.911,22.911,0,0,0,8-3.069,30.646,30.646,0,0,1-27.513,9.975,18.041,18.041,0,0,0,9.865-1.754c-2.3-.11-4.713-.329-7.015-.438,2.083-.329,4.165-.548,6.248-.877A34.8,34.8,0,0,1,8.769,19.073,15.644,15.644,0,0,0,18.2,16.881c-2.192.219-4.385.329-6.577.548,1.644-.987,3.288-1.863,4.933-2.85-3.837.987-7.673,2.083-11.51,3.069A26.313,26.313,0,0,0,14.031,12.5c-2.631,0-5.152-.11-7.783-.11a8.5,8.5,0,0,0,6.138-2.192c-3.617.219-7.235.548-10.852.767,3.4-.767,6.8-1.425,10.194-2.192C7.783,8.55,3.946,8.331,0,8.112c2.083-.329,4.165-.548,6.248-.877C5.59,6.687,5.261,6.687,4.494,6.138Z" transform="translate(136.548 275.361)" fill="#1b262c"/>
            <path id="Path_108" data-name="Path 108" d="M23.848,8.482c.11-2.083.11-4.385-1.1-6.138C21.217.151,18.148-.4,15.627.261A14.422,14.422,0,0,0,9.269,4.755a36.942,36.942,0,0,0-9.1,20.279c-.438,4.385-.11,8.988,1.863,12.935,2.192,4.165,9.317,10.523,13.373,4.933,2.083-2.85,3.069-7.015,4.056-10.3a80.258,80.258,0,0,0,2.85-11.51A79.257,79.257,0,0,0,23.848,8.482Z" transform="translate(167.617 215.469)" fill="#1b262c"/>
            <path id="Path_109" data-name="Path 109" d="M52.4,4.385c-2.96,7.344-5.919,14.688-8.769,22.033l-3.837,20.5s-16.662,42.531-9.1,3.617c0,0-33.213,60.617-7.015.987,0,0-40.886,56.013-5.59-4.385,0,0-37.927,41.654-3.946-5.042,0,0-24.663,28.61-3.946-3.617L28.5,18.525,35.189,0Z" transform="translate(23.641 177.036)" fill="#ab7b6f"/>
            <path id="Path_110" data-name="Path 110" d="M12.5,19.731a26.186,26.186,0,0,1,3.179-4.713A17.221,17.221,0,0,1,15.785,0S8.112,4.823,2.192,3.617L0,9.865A59.394,59.394,0,0,0,12.5,19.731Z" transform="translate(36.579 209.262)" fill="#ab7b6f" opacity="0.5"/>
            <g id="Group_34" data-name="Group 34" transform="translate(35.921 218.361)">
              <path id="Path_111" data-name="Path 111" d="M0,0A21.129,21.129,0,0,0,2.96,3.288c1.1,1.1,2.192,1.973,3.288,2.96L9.865,8.879a33.32,33.32,0,0,0,3.946,2.083A43.359,43.359,0,0,1,10.085,8.55C8.879,7.673,7.673,6.8,6.577,5.919a42.483,42.483,0,0,1-3.4-2.85C2.192,2.083,1.1,1.1,0,0Z" transform="translate(0 0)" fill="#664942"/>
            </g>
            <path id="Path_112" data-name="Path 112" d="M13.7,34.321C18.2,25,22.8,15.687,27.294,6.37,22.252,2.643,15.456-.207,9.317.012A24.933,24.933,0,0,1,0,10.316C2.192,19.633,6.467,28.183,13.7,34.321Z" transform="translate(160.882 212.101)" fill="#d19688"/>
            <path id="Path_113" data-name="Path 113" d="M17.1,18.415c-1.1,2.3-2.192,4.494-3.288,6.8C6.577,19.073,2.412,10.523,0,1.206A17.851,17.851,0,0,0,1.863,0h0C1.863.11,13.373,5.042,17.1,18.415Z" transform="translate(160.773 221.211)" fill="#d19688" opacity="0.7"/>
            <path id="Path_114" data-name="Path 114" d="M0,50.868A137.884,137.884,0,0,1,19.183,9.543C22.471,4.83,26.965-.212,32.665.007c4.385.219,7.892,3.4,10.742,6.8a70.628,70.628,0,0,1,14.14,25.76,11.493,11.493,0,0,1,7.235,7.015,12.067,12.067,0,0,1-.877,10.085,8.748,8.748,0,0,1-3.837,3.617,6.316,6.316,0,0,1-5.262.219c-2.412-.987-3.946-3.617-4.275-6.248a21.62,21.62,0,0,1,.877-7.892C49.656,48.676,41.983,56.9,33.1,60.4c-3.837,1.535-8,2.192-11.729,4.165-3.727,1.863-7.015,5.481-6.8,9.646A78.24,78.24,0,0,1,0,50.868Z" transform="translate(117.804 212.763)" fill="#d19688"/>
            <g id="Group_35" data-name="Group 35" transform="translate(131.615 234.474)">
              <path id="Path_115" data-name="Path 115" d="M4.165,10.194a5.675,5.675,0,0,0,.548-4.823,6.149,6.149,0,0,0-3.4-3.617v.767A61.975,61.975,0,0,0,7.563,0C5.371.438,3.179,1.1.986,1.754L0,2.083l.987.438A5.822,5.822,0,0,1,4.056,5.7,5.786,5.786,0,0,1,4.165,10.194Z" transform="translate(0 0)" fill="#664942"/>
            </g>
            <g id="Group_36" data-name="Group 36" transform="translate(137.315 228.884)">
              <path id="Path_116" data-name="Path 116" d="M0,0A35.078,35.078,0,0,1,6.577,2.85a30.81,30.81,0,0,1,5.59,4.385A15.437,15.437,0,0,0,7.015,2.083,17.9,17.9,0,0,0,0,0Z" transform="translate(0 0)" fill="#664942"/>
            </g>
            <g id="Group_37" data-name="Group 37" transform="translate(137.096 250.035)">
              <path id="Path_117" data-name="Path 117" d="M0,.772A10.9,10.9,0,0,1,4.6.991,11.152,11.152,0,0,1,8.769,2.964,5.755,5.755,0,0,0,4.823.224,6.585,6.585,0,0,0,0,.772Z" transform="translate(0 0)" fill="#1b262c"/>
            </g>
            <g id="Group_38" data-name="Group 38" transform="translate(126.025 242.543)">
              <path id="Path_118" data-name="Path 118" d="M4.933,5.194A4.685,4.685,0,0,0,3.727,1.467,4.377,4.377,0,0,0,0,.042,7.432,7.432,0,0,1,3.069,2.015,7.648,7.648,0,0,1,4.933,5.194Z" transform="translate(0 0)" fill="#1b262c"/>
            </g>
            <g id="Group_39" data-name="Group 39" transform="translate(133.698 260.562)">
              <path id="Path_119" data-name="Path 119" d="M0,0A7.944,7.944,0,0,0,4.823,3.946a7.523,7.523,0,0,0,6.138-.877,10.882,10.882,0,0,1-5.919.11A12.757,12.757,0,0,1,0,0Z" transform="translate(0 0)" fill="#1b262c"/>
            </g>
            <g id="Group_40" data-name="Group 40" transform="translate(122.147 250.807)">
              <path id="Path_120" data-name="Path 120" d="M5.522,6.138A6.312,6.312,0,0,1,1.795,4.056,7.341,7.341,0,0,1,.26,0a4.779,4.779,0,0,0,.877,4.6A4.331,4.331,0,0,0,5.522,6.138Z" transform="translate(0 0)" fill="#1b262c"/>
            </g>
            <g id="Group_41" data-name="Group 41" transform="translate(174.564 251.574)">
              <path id="Path_121" data-name="Path 121" d="M1.007,10.085A26.277,26.277,0,0,1,.788,5.042,27.265,27.265,0,0,1,1.336,0,10.184,10.184,0,0,0,.021,5.042,9.917,9.917,0,0,0,1.007,10.085Z" transform="translate(0 0)" fill="#664942"/>
            </g>
            <path id="Path_122" data-name="Path 122" d="M30.961,20.717,21.206,41.325s-16.442,15.785-14.031,8c1.535-2.083,3.179-4.494,5.152-7.235,0,0-1.754,2.083-4.056,4.494a68.977,68.977,0,0,1,5.152-8.66L4.106,47.792S2.462,50.533.379,53.821c-1.206.219.219-3.4,7.892-15.346l18.306-19.95L33.263,0,47.4,3.617C41.813,9.208,36.223,14.908,30.961,20.717Z" transform="translate(25.458 176.926)" fill="#ab7b6f" opacity="0.5"/>
            <path id="Path_123" data-name="Path 123" d="M53.788,13.592,44.033,34.2S17.944,59.192,36.36,30.912l-9.317,9.865s-23.677,40.448-5.7-4.494c0,0-29.815,52.615-6.248-5.152,0,0-30.473,41.325-4.823-3.837,0,0-20.608,19.731-2.85-4.056L24.631,8.769,43.375,0Z" transform="translate(0 182.407)" fill="#d19688"/>
            <path id="Path_124" data-name="Path 124" d="M28.938,29.6c-6.577,6.8-12.167,2.96-12.167,2.96C13.592,39.133,9.1,40.229,9.1,40.229v-.11l3.617-9.1,2.3-6.8s-1.315-.11-5.262,5.7S2.3,37.16,2.3,37.16h0l5.481-9.975L9.646,22.8,0,30.035c1.1-1.754,2.74-3.946,4.933-6.8L22.142,8.769,40.886,0C44.5,14.908,35.515,22.8,28.938,29.6Z" transform="translate(2.269 182.407)" fill="#d19688" opacity="0.3"/>
            <path id="Path_125" data-name="Path 125" d="M96.023,22.916C83.308,16.667,70.7,10.419,57.986,4.171,52.615,1.541,46.586-1.2,40.886.554s-9.1,7.454-11.948,12.825A323.859,323.859,0,0,0,0,93.837c12.5,5.371,26.856,6.467,39.79,2.083C43.3,79.258,46.477,63.035,49.875,46.373c16,3.508,31.9,8.55,46.258,16.333C101.284,50.1,102.052,34.973,96.023,22.916Z" transform="translate(49.623 85.83)" fill="#d5b400"/>
            <path id="Path_126" data-name="Path 126" d="M56.342,35.863C51.19,31.7,45.929,27.751,40.558,23.915A272.04,272.04,0,0,0,10.523,5.5C7.783,4.074,3.508,2.649,0,.676c.11,0,.219-.11.329-.11,5.7-1.754,11.729.877,17.1,3.617,12.715,6.248,25.321,12.5,38.036,18.744a40.85,40.85,0,0,1,4.056,15.346C58.425,37.507,57.329,36.63,56.342,35.863Z" transform="translate(90.29 85.817)" fill="#26638c" opacity="0.5"/>
            <g id="Group_42" data-name="Group 42" transform="translate(91.606 97.565)">
              <path id="Path_127" data-name="Path 127" d="M0,0A23.217,23.217,0,0,0,1.535,6.029a26.866,26.866,0,0,0,2.85,5.59,23.741,23.741,0,0,0,3.946,4.823,27.487,27.487,0,0,0,4.823,3.837A40.382,40.382,0,0,1,8.769,16a36.894,36.894,0,0,1-3.617-4.823A42.147,42.147,0,0,1,2.192,5.81,52.756,52.756,0,0,1,0,0Z" transform="translate(0 0)" fill="#1b262c"/>
            </g>
            <g id="Group_43" data-name="Group 43" transform="translate(85.906 103.922)">
              <path id="Path_128" data-name="Path 128" d="M0,0A20.411,20.411,0,0,0,3.288,4.165,31.05,31.05,0,0,0,7.344,7.673a31.9,31.9,0,0,0,4.6,2.74,27.47,27.47,0,0,0,5.042,1.754,48.141,48.141,0,0,1-4.823-2.3C10.633,8.988,9.1,8.112,7.673,7.125A38.014,38.014,0,0,1,3.617,3.837C2.412,2.631,1.206,1.315,0,0Z" transform="translate(0 0)" fill="#1b262c"/>
            </g>
            <path id="Path_129" data-name="Path 129" d="M96.133,41C81.663,33.323,65.769,28.171,49.875,24.663c-2.083,9.975-4.056,19.95-6.138,29.815A312.858,312.858,0,0,0,19.292,76.731,59.275,59.275,0,0,1,0,72.017C2.192,61.933,4.823,52.067,8,42.2A275.494,275.494,0,0,0,40.229,14.688C45.161,9.756,50.2,4.494,56.89,2.521,63.248.548,70.263,1.973,76.183,4.933s11.729,7.454,16.771,11.838A78.227,78.227,0,0,1,93.721,0a20.44,20.44,0,0,1,2.192,1.1C101.833,13.263,101.065,28.39,96.133,41Z" transform="translate(49.842 107.54)" fill="#26638c" opacity="0.5"/>
            <g id="Group_44" data-name="Group 44" transform="translate(50.386 209.372)">
              <path id="Path_130" data-name="Path 130" d="M3.951,18.2a20.045,20.045,0,0,1-2.3-4.275,17.579,17.579,0,0,1-1.1-4.6A16.986,16.986,0,0,1,.662,4.6,24.223,24.223,0,0,1,1.978,0,19.287,19.287,0,0,0,.991,2.192a18.144,18.144,0,0,0-.658,2.3A14.944,14.944,0,0,0,.114,9.427,15.535,15.535,0,0,0,3.951,18.2Z" transform="translate(0 0)" fill="#664942"/>
            </g>
            <path id="Path_131" data-name="Path 131" d="M76.511,153.133c9.208,6.687,16.442,15.456,23.129,24.663,6.687,9.1,12.825,18.635,20.279,27.185s16.223,16.223,26.746,20.388,22.91,4.6,32.885-.767a52.092,52.092,0,0,0,23.9-27.733c3.617-9.756,4.056-20.279,4.713-30.583A592.453,592.453,0,0,1,235.015,24.773,263.782,263.782,0,0,1,120.358,0c-3.727,21.7,6.358,45.271,0,66.317-1.973,6.467-5.371,12.277-7.892,18.525a79.215,79.215,0,0,0-5.919,35.3c-5.042-4.275-10.852-8.879-16.771-11.838s-12.935-4.275-19.292-2.412c-6.687,1.973-11.729,7.235-16.662,12.167A288.406,288.406,0,0,1,0,159.929c3.508,1.315,4.6,6.577,5.262,10.3s.548,7.563,1.644,11.181a17.2,17.2,0,0,0,13.263,11.838c11.948-12.825,24.663-25.54,38.365-36.392,2.521-1.973,5.152-4.056,8.112-5.042A12.048,12.048,0,0,1,76.511,153.133Z" transform="translate(33.729 2.747)" fill="#f4cf00"/>
            <g id="Group_45" data-name="Group 45" transform="translate(226.773 37.934)">
              <path id="Path_132" data-name="Path 132" d="M.208,64.673c.11-5.481.329-10.852.658-16.333.438-5.481.877-10.852,1.644-16.223Q3.5,24.061,5.14,16C6.127,10.633,7.333,5.371,8.648,0,7,5.152,5.688,10.523,4.483,15.785,3.277,21.156,2.4,26.527,1.633,31.9.975,37.269.427,42.75.208,48.231-.012,53.821-.121,59.3.208,64.673Z" transform="translate(0 0)" fill="#1b262c"/>
            </g>
            <g id="Group_46" data-name="Group 46" transform="translate(213.607 34.426)">
              <path id="Path_133" data-name="Path 133" d="M0,46.477c1.206-3.946,2.412-7.892,3.727-11.838S6.358,26.746,7.892,22.91q2.137-5.755,4.6-11.51C14.14,7.563,15.785,3.837,17.538,0a116.4,116.4,0,0,0-5.59,11.071C10.194,14.8,8.66,18.635,7.125,22.581,5.7,26.527,4.275,30.363,3.069,34.419,1.973,38.475.877,42.421,0,46.477Z" transform="translate(0 0)" fill="#1b262c"/>
            </g>
            <path id="Path_134" data-name="Path 134" d="M22.278,4.165A252.337,252.337,0,0,0,.136,69.058C-.631,45.161,1.78,22.69,9.124,0,14.715.658,16.8,3.508,22.278,4.165Z" transform="translate(236.929 27.849)" fill="#3282b8" opacity="0.3"/>
            <path id="Path_135" data-name="Path 135" d="M34.419.884C29.925,32.672,17.648,62.159.329,89.124A298.8,298.8,0,0,0,0,8.776C11.181,3.3,22.252-2.185,34.419.884Z" transform="translate(192.013 0)" fill="#3282b8" opacity="0.3"/>
            <g id="Group_47" data-name="Group 47" transform="translate(133.917 117.624)">
              <path id="Path_136" data-name="Path 136" d="M0,0,12.825,10.852,25.76,21.485,38.8,32.008c4.385,3.508,8.769,6.906,13.154,10.3L39.133,31.46,26.2,20.827,13.154,10.3C8.879,6.906,4.494,3.4,0,0Z" transform="translate(0 0)" fill="#1b262c"/>
            </g>
            <g id="Group_48" data-name="Group 48" transform="translate(171.077 135.491)">
              <path id="Path_137" data-name="Path 137" d="M0,12.825a44.95,44.95,0,0,0,11.51.11,63.226,63.226,0,0,0,11.181-2.3c.877-.219,1.754-.658,2.74-.987a26.774,26.774,0,0,0,2.631-1.1l2.631-1.1,2.521-1.315c1.754-.877,3.288-1.863,4.933-2.85S41.215,1.1,42.75,0c-1.535,1.1-3.069,2.192-4.713,3.179A43.391,43.391,0,0,1,33.1,5.919L30.583,7.235l-2.631,1.1a25.654,25.654,0,0,1-2.631.987,20.043,20.043,0,0,1-2.74.877A54.415,54.415,0,0,1,11.4,12.277,43.311,43.311,0,0,1,.11,11.948Z" transform="translate(0 0)" fill="#1b262c"/>
            </g>
            <g id="Group_49" data-name="Group 49" transform="translate(176.996 151.276)">
              <path id="Path_138" data-name="Path 138" d="M0,1.864A63.06,63.06,0,0,0,11.181,4.056a64.811,64.811,0,0,0,11.29.329,79.212,79.212,0,0,0,11.29-1.315A72.331,72.331,0,0,0,44.613,0,76.731,76.731,0,0,1,33.652,2.85a77.226,77.226,0,0,1-11.181,1.1A77.9,77.9,0,0,1,11.181,3.4,52.867,52.867,0,0,1,.219.987Z" transform="translate(0 0)" fill="#1b262c"/>
            </g>
            <g id="Group_50" data-name="Group 50" transform="translate(95.134 135.163)">
              <path id="Path_139" data-name="Path 139" d="M7.762,18.854C6.775,17.429,5.9,16,5.022,14.469s-1.644-2.96-2.412-4.6A36.1,36.1,0,0,1,.856,5.042,19.9,19.9,0,0,1,.2,0a14.163,14.163,0,0,0,.11,5.262A20.881,20.881,0,0,0,1.952,10.3a31.385,31.385,0,0,0,2.631,4.6A21.819,21.819,0,0,0,7.762,18.854Z" transform="translate(0 0)" fill="#1b262c"/>
            </g>
            <g id="Group_51" data-name="Group 51" transform="translate(85.906 144.699)">
              <path id="Path_140" data-name="Path 140" d="M14.36,9.865A43.537,43.537,0,0,1,10.413,8,26.242,26.242,0,0,1,6.687,5.7,26.617,26.617,0,0,1,3.179,3.069L2.3,2.3l-.767-.767C.987,1.1.548.438,0,0A14.394,14.394,0,0,0,2.74,3.508a17.377,17.377,0,0,0,3.508,2.85A22.841,22.841,0,0,0,10.194,8.55,26.312,26.312,0,0,0,14.36,9.865Z" transform="translate(0 0)" fill="#1b262c"/>
            </g>
            <path id="Path_141" data-name="Path 141" d="M29.815,16.881c1.644,1.863,3.288,4.165,2.521,6.577a5.026,5.026,0,0,1-4.165,2.96,12.3,12.3,0,0,1-5.262-.767C15.346,23.677,7.454,22.033,0,19.621q1.315-4.439,2.96-8.55C4.494,7.344,6.358,3.727,8,0a26.156,26.156,0,0,1,2.412,1.315A75.81,75.81,0,0,1,29.815,16.881Z" transform="translate(143.125 76.518)" fill="#d5b400" opacity="0.5"/>
          </g>
        </g>
      </g>
    </g>
  </g>
</svg>
