<svg xmlns="http://www.w3.org/2000/svg" width="108.928" height="116.845" viewBox="0 0 108.928 116.845">
  <g id="Group_26" data-name="Group 26" transform="translate(-87.995 -104.343)" opacity="0.2">
    <g id="Group_1" data-name="Group 1" transform="translate(87.995 104.343)">
      <path id="Path_1" data-name="Path 1" d="M187.856,322.911l-.347,4.046c-.06.03-.106.151-.136.393q-.521,5.389-1.555,14.13-1.245,10.507-13.224,23.957-9.307,10.416-19.308,8.439-12.635-2.536-13.8-15.172-.611-6.454,5.51-22.584a13.013,13.013,0,0,1,1.208-3.019,1.473,1.473,0,0,1,1.253-.86c.483,0,.74.543.74,1.63q-.521,0-.77,1.721-4.642,13.7-3.789,17.934,1.721,8.152,11.2,9.827,11.209,1.993,19.73-7.156,7.337-7.835,7.88-16.122.294-4.687.559-25.859c.121-9.933.166-14.945.166-14.99q0-4.778,4.484-10.779c.166-.226.287-.347.347-.347.226,0,.362.03.392.091a.6.6,0,0,1,.045.257q0,2.106-.347,10.522l.091,8.273c.06.513.121.936.166,1.253l-.045.045a6.907,6.907,0,0,0,.347,1.072c1.328,2.868,2.868,4.453,4.65,4.74.694.121,1.057.166,1.117.166h.694l.559,5.691-2.929,4.227H192.1A6.022,6.022,0,0,1,187.856,322.911Z" transform="translate(-139.433 -257.349)" fill="#fff"/>
      <path id="Path_2" data-name="Path 2" d="M477.015,582.74v-1.63l5.435-5.51h1.3l5.087,5.51v1.63l-5.087,5.435v.091l5,5.344v1.721l-5.1,5.344-1.555.091L477,595.33v-1.721l5.253-5.344h-.091Z" transform="translate(-426.041 -501.448)" fill="#333"/>
      <path id="Path_3" data-name="Path 3" d="M492.735,429.827a7.438,7.438,0,0,0,1.374-2.068,1.3,1.3,0,0,1,.257-.257.914.914,0,0,1,.347-.166.349.349,0,0,1,.347.091,1.2,1.2,0,0,1,.257.86,4.165,4.165,0,0,1-.091.861q-1.245,6.2-3.442,9.269c-.166.227-.332.453-.468.649a8.7,8.7,0,0,1-5.782,3.578l-.936.015-1.3-5.631,3.412-4.182c.77-.06,2.114-.86,2.747-.936A8.812,8.812,0,0,0,492.735,429.827Z" transform="translate(-431.39 -375.557)" fill="#fff"/>
      <path id="Path_4" data-name="Path 4" d="M553.154,363.188a36.339,36.339,0,0,1-5.1.649,1.946,1.946,0,0,0-.362.045.716.716,0,0,1-.3.015.272.272,0,0,1-.136-.151,2.751,2.751,0,0,1-.151-.438q8.491-4.914,12.5-7.623a7.943,7.943,0,0,0,1.178-.71c.679-.453,1.132-.755,1.374-.951a12.89,12.89,0,0,0,1-.906,4.8,4.8,0,0,0,.921-1.223,2.4,2.4,0,0,0,.151-.649c.045-.317.076-.634.106-.966a3.2,3.2,0,0,1,.091-.619q-1.472,0-2.536-.091a18.243,18.243,0,0,1-2.476-.408,5.515,5.515,0,0,1-2.355-1.117,4.172,4.172,0,0,1-1.328-2.008,4.951,4.951,0,0,1,.257-3.185c.2-.543.423-1.268.649-2.174s.438-1.676.619-2.325a12.282,12.282,0,0,1,.815-2.083,6.432,6.432,0,0,1,1.268-1.812c1.328-1.4,2.612-1.932,3.88-1.6a4.922,4.922,0,0,1,2.159,1.857q2.287,3.1,2.023,8.575a23.173,23.173,0,0,1-1.3,6.718q-1.155,3.329-2.672,6.9a11.736,11.736,0,0,0-.453,1.1c-.211.558-.393,1-.513,1.3a10.247,10.247,0,0,1-.544,1.057,2.974,2.974,0,0,1-.8.951,2.484,2.484,0,0,1-1.012.468C558,362.282,555.674,362.75,553.154,363.188Z" transform="translate(-485.558 -295.271)" fill="#fff"/>
      <path id="Path_5" data-name="Path 5" d="M713.878,255.026q-3.283-8.31-1.389-29.905l.6-7.156.091-1.3a3.6,3.6,0,0,1,.468-.951c1.208-2.038,2.2-3.668,2.974-4.876a3.954,3.954,0,0,1,.513-.6c.121-.06.151-.106.136-.136l.09.091q-1.154,10.733-1.419,17.028c-.09,1.842-.151,3.321-.166,4.438-.408,5.857.106,10.28,1.51,13.269a7.427,7.427,0,0,0,5,4.393h1l2.461,6.642-4.831,3.88h-.649a6.279,6.279,0,0,1-3.366-.906A8.432,8.432,0,0,1,713.878,255.026Z" transform="translate(-625.39 -191.124)" fill="#fff"/>
      <path id="Path_6" data-name="Path 6" d="M782.7,237.056V235.41l5.435-5.51h1.3l5.087,5.51v1.645l-5.042,5.435v.091l4.952,5.344v1.721l-5.087,5.329-1.555.091L782.7,249.63V247.91l5.253-5.344h-.075Z" transform="translate(-685.592 -207.935)" fill="#333"/>
      <path id="Path_7" data-name="Path 7" d="M762.4,436.579l4.046-4.951a5.872,5.872,0,0,0,5.691-3.88,9.393,9.393,0,0,1,1.374-2.612.743.743,0,0,0,.257.06l.347-.166c.121-.06.226-.03.347.091a1.681,1.681,0,0,1,.256.86,2.525,2.525,0,0,1-.09.86c-1.238,5.721-2.476,9.42-3.714,11.126-1.842,2.521-3.94,3.94-6.3,4.227h-.558Z" transform="translate(-668.357 -373.583)" fill="#fff"/>
      <path id="Path_8" data-name="Path 8" d="M658.274,103.119c-1.147,0-6.174-4.151-6.174-4.151l.272-1.419a42.763,42.763,0,0,0,5.118-.181v-.091a4.831,4.831,0,0,1-1.676-3.88c0-4.151,3.095-9,7.85-9,4.589,0,5.027,7.759,5.027,7.759l-1.419.347a4.521,4.521,0,0,0-3.623-2.023,7.97,7.97,0,0,0-5.3,2.113,5.558,5.558,0,0,0,5.389,3.623,19.836,19.836,0,0,0,6.974-1.419l.438.619-2.295,5.118A62.678,62.678,0,0,1,658.274,103.119Z" transform="translate(-574.708 -84.4)" fill="#333"/>
    </g>
    <g id="Group_4" data-name="Group 4" transform="translate(126.454 206.499)">
      <path id="Path_9" data-name="Path 9" d="M405.013,800.236l-1.213-3.7v-.016c.243-.615.453-1.116.615-1.488s.388-.809.679-1.327a7.94,7.94,0,0,1,.922-1.327,2.053,2.053,0,0,1,1.585-.874,1.417,1.417,0,0,1,.857.259,1.777,1.777,0,0,1,.566.68,4.175,4.175,0,0,1,.307.857,3.979,3.979,0,0,1,.1.857,5.086,5.086,0,0,1-.34,1.682c-.016.016-.016.016-.016.049a.059.059,0,0,1-.016.048.147.147,0,0,1-.049.113,2.537,2.537,0,0,1-.421.4q-.291.243-.437.388l-.016.016-3.025-1.084-.291.728L406,799.815l-.032.016q-.825.364-.922.388Zm.534-5.355,2.669.922a2.632,2.632,0,0,0,.275-1.407,2.694,2.694,0,0,0-.275-1.181.909.909,0,0,0-.841-.55c-.5,0-1,.5-1.488,1.521-.032.048-.1.178-.194.372-.016.048-.049.113-.065.178A.731.731,0,0,0,405.547,794.881Z" transform="translate(-403.8 -785.547)" fill="#333"/>
      <path id="Path_10" data-name="Path 10" d="M455.443,772.174l.081.1v1l-.081.081h-.453a1.912,1.912,0,0,1-1.278-.372,2.884,2.884,0,0,1-.76-1.2l-.032.032-.016.016c0,.016,0,.032-.016.032s-.016.016-.032.032a9.04,9.04,0,0,1-4.9,2.022h-.032l-.421-1.1.032-.065h.032a15.075,15.075,0,0,0,2.977-.631.231.231,0,0,0,.1-.032l-.032-.081a22.977,22.977,0,0,0-2.313-5.322l-.016-.032.938-.534.032.032a22.13,22.13,0,0,1,1.812,4.287c.032.129.081.34.146.615a6.107,6.107,0,0,0,.162.615l.032.113a7.294,7.294,0,0,1,.663-.372,5.05,5.05,0,0,0,.663-.453V763.6h.987v6.487c0,.34.016.615.032.825a1.854,1.854,0,0,0,.178.631.945.945,0,0,0,.469.469,2.013,2.013,0,0,0,.841.146h.21Z" transform="translate(-440.43 -762.16)" fill="#333"/>
      <path id="Path_11" data-name="Path 11" d="M494.949,792.324V791.24l.032-.016a4.818,4.818,0,0,1,1.569-.323,4.406,4.406,0,0,1,2.346.971c.275.178.955.728,2.055,1.618l.016.016-.243,1-.032.016c-1.634.7-2.556,1.084-2.75,1.149a8.473,8.473,0,0,1-2.928.582h-1.084l-.129-.129V795.2l.129-.129h1.165a10.74,10.74,0,0,0,4.772-1.327,16.156,16.156,0,0,0-1.634-1.084,3.953,3.953,0,0,0-1.877-.582,5.235,5.235,0,0,0-1.375.243Z" transform="translate(-479.24 -785.044)" fill="#333"/>
      <path id="Path_12" data-name="Path 12" d="M545.191,756.35l.049.534-.032.016a5.552,5.552,0,0,1-1.327.146H542.7v-.582l.744.032a.624.624,0,0,0-.048-.065q-.024-.049-.049-.049a.444.444,0,0,1-.065-.081.964.964,0,0,0-.065-.1.915.915,0,0,1-.129-.453,1.928,1.928,0,0,1,.21-.874l.032-.032a3.025,3.025,0,0,1,.906-.146,3.44,3.44,0,0,1,.68.065l.032.016-.032.485h-.032a5.73,5.73,0,0,0-.728-.032,1.328,1.328,0,0,0-.518.065.884.884,0,0,0-.032.178,1.416,1.416,0,0,0,.307,1.035h.032a3.967,3.967,0,0,0,1.181-.146Zm-1.957,2.281.777-.7.032.032a22.131,22.131,0,0,1,3.122,2.928l.032-.032.032-.032c0-.016,0-.016.016-.032a6.521,6.521,0,0,0,.5-2.265c.016-.178.016-.955.016-2.346v-.032h.987v1.359a8.086,8.086,0,0,1-.825,4.077l-.032.065.032.049a22.52,22.52,0,0,1,1.877,3.009v.016l-.518,1.181h-5.775l-.437-1.132.016-.081.032-.016a11.426,11.426,0,0,0,1.844-1.229,14.671,14.671,0,0,0,1.666-1.666l.032-.032.016-.032-.049-.049a34.5,34.5,0,0,0-3.349-3.025Zm1.019,6.147h4.611a.7.7,0,0,1-.1-.113c-.049-.065-.113-.194-.21-.356-.1-.178-.178-.307-.226-.388a13.257,13.257,0,0,0-1.068-1.456l-.032-.032a8.582,8.582,0,0,1-2.88,2.3Z" transform="translate(-520.23 -754.7)" fill="#333"/>
      <path id="Path_13" data-name="Path 13" d="M596.7,763.5v9.755h-1V763.5Z" transform="translate(-564.656 -762.076)" fill="#333"/>
      <path id="Path_14" data-name="Path 14" d="M633.144,798.494l.081.1v1l-.081.081h-.307a1.929,1.929,0,0,1-1.149-.453l-.275-.194c0,.388-.016.728-.032,1a5.562,5.562,0,0,1-.162.922,2.247,2.247,0,0,1-.372.841,1.922,1.922,0,0,1-.68.534,2.365,2.365,0,0,1-1.068.226,2.426,2.426,0,0,1-.89-.178l-.032-.016-.178-1.1.065.016a3.258,3.258,0,0,0,1.084.162,1.072,1.072,0,0,0,1.019-.453,2.519,2.519,0,0,0,.275-1.262V795h.971v3.219h.065a3.527,3.527,0,0,0,.793.243c.178.016.469.032.874.032Z" transform="translate(-591.73 -788.481)" fill="#333"/>
      <path id="Path_15" data-name="Path 15" d="M662.009,798.41l.081.1v1l-.081.081h-.4a1.762,1.762,0,0,1-.825-.227,2.339,2.339,0,0,1-.7-.534l-.032-.032-.016-.016c0-.016,0-.032-.016-.032s-.016,0-.016-.016,0-.016-.016-.032l-.5.874H656.93l-.129-.129v-.938l.129-.1h2.394V794.9h1v3.171h.016l.032.016a2.25,2.25,0,0,0,.744.275,5.319,5.319,0,0,0,.89.048Zm-3.883,3.915a.545.545,0,0,1-.421-.194.655.655,0,0,1-.178-.437.616.616,0,0,1,.178-.421.587.587,0,0,1,.421-.178.664.664,0,0,1,.453.178.529.529,0,0,1,.178.421.664.664,0,0,1-.178.453A.7.7,0,0,1,658.127,802.325Zm2.394-.194a.553.553,0,0,1-.841,0,.655.655,0,0,1-.178-.437.616.616,0,0,1,.178-.421.6.6,0,0,1,.841.857Z" transform="translate(-615.871 -788.397)" fill="#333"/>
      <path id="Path_16" data-name="Path 16" d="M688.938,793.134l-.421,2.944a4.644,4.644,0,0,0,1.99.388h.081l.453-3.349h1l-.356,2.993a2.212,2.212,0,0,0,1.019.259,12.585,12.585,0,0,0,1.359.1h.146c-.065-.4-.162-1-.291-1.812-.13-.793-.21-1.391-.275-1.78v-.032l1-.243.016.049c.194,1.068.323,1.876.4,2.41.081.631.113.971.113,1v.032h.016c.016.016.016.016.032.016a2.781,2.781,0,0,0,.728.275,5.342,5.342,0,0,0,.825.049h.016l.081.1v1l-.081.081h-.323a2.308,2.308,0,0,1-1.537-.76l-.485.76h-.032a5.661,5.661,0,0,1-2.9-.728c-.049-.049-.065-.065-.081-.065l-.534.793h-.065a4.458,4.458,0,0,1-1.342-.21,3.237,3.237,0,0,1-1.133-.583l-.1.793h-2.394l-.081-.065v-1l.081-.065h1.569l.469-3.349Z" transform="translate(-640.18 -786.469)" fill="#333"/>
      <path id="Path_17" data-name="Path 17" d="M758.347,779.383l.081.065V780.5l-.081.065h-.679a5.16,5.16,0,0,1-2.33-.485.54.54,0,0,0-.226-.065,1.354,1.354,0,0,0-.291.1,6.547,6.547,0,0,1-2.669.453h-.971l-.081-.113v-.938l.1-.129h2.88a5.734,5.734,0,0,1-1.666-1.812v-.032a4.372,4.372,0,0,1,.388-.89,6.107,6.107,0,0,1,.55-.825,2.232,2.232,0,0,1,.776-.631,2.055,2.055,0,0,1,.971-.243,1.97,1.97,0,0,1,1.553.647,2.326,2.326,0,0,1,.582,1.6,2.351,2.351,0,0,1-.146.874,3.946,3.946,0,0,1-.469.809c-.162.194-.275.34-.372.453.453.032,1.165.049,2.1.049Zm-5-2.038.032.049a3.944,3.944,0,0,0,1.893,1.666c.016,0,.016,0,.032.016s.016.016.032.016v-.016l.032-.032a4.678,4.678,0,0,0,.7-.744,1.44,1.44,0,0,0,.227-.809,1.333,1.333,0,0,0-1.408-1.408C754.3,776.083,753.785,776.5,753.349,777.344Zm2.022-4.109a.553.553,0,0,1-.841,0,.655.655,0,0,1-.178-.437.616.616,0,0,1,.178-.421.529.529,0,0,1,.421-.178.587.587,0,0,1,.42.178.616.616,0,0,1,.178.421A.654.654,0,0,1,755.371,773.235Z" transform="translate(-694.916 -769.369)" fill="#333"/>
      <path id="Path_18" data-name="Path 18" d="M798.458,781.395l.081.1v1l-.081.081H798a1.762,1.762,0,0,1-.825-.227,2.341,2.341,0,0,1-.7-.534l-.032-.032-.016-.016c0-.016,0-.032-.016-.032s-.016,0-.016-.016,0-.016-.016-.032l-.5.874H793.33l-.129-.13v-.938l.129-.1h2.394v-3.51h1v3.171h.016l.032.016.388.194a1.46,1.46,0,0,0,.421.1c.194.016.485.032.874.032Zm-3.721-5.565a.608.608,0,0,1-.6-.6.656.656,0,0,1,.178-.437.554.554,0,0,1,.437-.194.664.664,0,0,1,.453.178.6.6,0,0,1,.178.453.587.587,0,0,1-.178.421A.737.737,0,0,1,794.737,775.829Zm2.41-.178a.6.6,0,0,1-1.019-.421.656.656,0,0,1,.178-.437.589.589,0,0,1,.874,0,.656.656,0,0,1,.178.437A1.03,1.03,0,0,1,797.147,775.651Z" transform="translate(-730.206 -771.381)" fill="#333"/>
      <path id="Path_19" data-name="Path 19" d="M823.947,763.5h1.035v9.755H822.3l-.1-.1v-.987l.1-.1h1.65Z" transform="translate(-754.514 -762.076)" fill="#333"/>
    </g>
    <g id="Group_5" data-name="Group 5" transform="translate(153.277 182.524)">
      <path id="Path_20" data-name="Path 20" d="M571.929,623.8l1.1-.971.032.065c1.456,2.588,2.491,4.465,3.106,5.613v.016l-.663,1.747a5.833,5.833,0,0,1-2.8.7,3.888,3.888,0,0,1-2.184-.615,2.029,2.029,0,0,1-.922-1.8,3.278,3.278,0,0,1,.776-2.135,12.211,12.211,0,0,1,2.022-1.909Zm-.1-2.507a.8.8,0,0,1-.6.243.752.752,0,0,1-.582-.259.848.848,0,0,1-.227-.582.75.75,0,0,1,.243-.55.759.759,0,0,1,.566-.243.794.794,0,0,1,.582.243.775.775,0,0,1,.259.566A.8.8,0,0,1,571.833,621.291Zm3.074,7.62-.016-.032c-.065-.1-.307-.55-.728-1.343-.1-.178-.243-.421-.421-.744q-.291-.485-.34-.582c-.032-.081-.1-.194-.178-.356-.081-.146-.146-.259-.178-.307a.615.615,0,0,1-.032-.1,6.312,6.312,0,0,0-1.456,1.213,2.2,2.2,0,0,0-.7,1.424,1.055,1.055,0,0,0,.663.987A3.44,3.44,0,0,0,573,629.4a5.606,5.606,0,0,0,1.084-.113,2.324,2.324,0,0,0,.906-.323Zm-.453-7.636a.758.758,0,0,1-.583.259.7.7,0,0,1-.566-.259.833.833,0,0,1-.21-.582.831.831,0,0,1,.793-.793.759.759,0,0,1,.566.243.777.777,0,0,1,.243.55A.947.947,0,0,1,574.453,621.275Z" transform="translate(-569.6 -617.732)" fill="#333"/>
      <path id="Path_21" data-name="Path 21" d="M620.043,652.675l.1.13v1.343l-.1.1h-.421a2.649,2.649,0,0,1-1.537-.6l-.372-.259c0,.518-.016.971-.048,1.327a8.189,8.189,0,0,1-.21,1.229,3.014,3.014,0,0,1-.485,1.1,2.508,2.508,0,0,1-.89.712,3.142,3.142,0,0,1-1.424.291,2.968,2.968,0,0,1-1.181-.243l-.032-.016-.243-1.456.081.016a3.919,3.919,0,0,0,1.44.21,1.411,1.411,0,0,0,1.343-.615,3.268,3.268,0,0,0,.356-1.666V648h1.294v4.271h.065a3.961,3.961,0,0,0,1.052.323,7.53,7.53,0,0,0,1.181.065h.032Z" transform="translate(-606.147 -641.286)" fill="#333"/>
      <path id="Path_22" data-name="Path 22" d="M656.13,651.227h-4.352l-.178-.178v-1.262l.178-.146h3.041V644.4h1.31Zm-2.9,3.4a.774.774,0,0,1-.566.259.719.719,0,0,1-.566-.259.794.794,0,0,1-.243-.582.75.75,0,0,1,.243-.55.782.782,0,0,1,1.132,0,.749.749,0,0,1,.243.55A1.029,1.029,0,0,1,653.234,654.624Zm2.071.243a.72.72,0,0,1-.566-.259.8.8,0,0,1-.243-.582.75.75,0,0,1,.243-.55.759.759,0,0,1,.566-.243.832.832,0,0,1,.793.793.85.85,0,0,1-.243.582A.711.711,0,0,1,655.3,654.867Z" transform="translate(-638.334 -638.269)" fill="#333"/>
      <path id="Path_23" data-name="Path 23" d="M688.927,629.708l.1.129v1.343l-.1.1h-.4a2.649,2.649,0,0,1-1.537-.6l-.372-.259c0,.518-.016.971-.048,1.327a8.172,8.172,0,0,1-.21,1.229,3.011,3.011,0,0,1-.485,1.1,2.506,2.506,0,0,1-.89.712,3.143,3.143,0,0,1-1.423.291,2.967,2.967,0,0,1-1.181-.243l-.032-.016-.243-1.456.081.016a3.927,3.927,0,0,0,1.44.21,1.411,1.411,0,0,0,1.343-.615,3.268,3.268,0,0,0,.356-1.666v-6.277h1.294V629.3h.065a5.477,5.477,0,0,0,2.216.4Zm-3.122-7.474a.753.753,0,0,1-.583-.259.848.848,0,0,1-.226-.582.75.75,0,0,1,.243-.55.759.759,0,0,1,.566-.243.75.75,0,0,1,.55.243.777.777,0,0,1,.243.55.848.848,0,0,1-.227.582A.72.72,0,0,1,685.8,622.234Z" transform="translate(-663.9 -618.319)" fill="#333"/>
      <path id="Path_24" data-name="Path 24" d="M722.137,644.693v-1.44l.032-.016a6.676,6.676,0,0,1,2.071-.437,5.907,5.907,0,0,1,3.122,1.294c.307.21.631.437.938.663.307.243.663.534,1.084.874.4.339.647.55.728.6l.016.016-.324,1.327-.955.421a3.9,3.9,0,0,0,1.569.324H732l.1.1v1.375l-.1.081h-1.569a3.122,3.122,0,0,1-2.572-1.488l-.049.016h-.032c-.049.016-.081.048-.13.048a1.367,1.367,0,0,0-.356.162,2.084,2.084,0,0,0-.356.162,1.212,1.212,0,0,0-.243.129,10.891,10.891,0,0,1-4.465.971h-1.456l-.178-.178v-1.2l.178-.178h1.585a14.352,14.352,0,0,0,6.342-1.763,23.056,23.056,0,0,0-2.168-1.44,5.194,5.194,0,0,0-2.491-.76,7.251,7.251,0,0,0-1.828.323Zm4.594,8.186a.759.759,0,0,1-.566-.243.793.793,0,0,1,.55-1.343.888.888,0,0,1,.6.226.725.725,0,0,1,.243.55.759.759,0,0,1-.243.566A.716.716,0,0,1,726.731,652.879Z" transform="translate(-696.172 -636.928)" fill="#333"/>
      <path id="Path_25" data-name="Path 25" d="M789.429,606.5H790.8v12.958h-3.575l-.129-.129v-1.31l.129-.146h2.2Z" transform="translate(-751.914 -606.5)" fill="#333"/>
      <path id="Path_26" data-name="Path 26" d="M829.826,606.5v12.958H828.5V606.5Z" transform="translate(-786.617 -606.5)" fill="#333"/>
    </g>
  </g>
</svg>
